<svg width="618" height="424" viewBox="0 0 618 424" fill="none" xmlns="http://www.w3.org/2000/svg">
<path d="M618 0H0V424H618V0Z" fill="white"/>
<path d="M258.402 342.32V323.36H278.416" stroke="#AFCCE4" stroke-linecap="round" stroke-linejoin="round"/>
<path d="M278.766 323.01V304.051H298.78" stroke="#AFCCE4" stroke-linecap="round" stroke-linejoin="round"/>
<path d="M299.132 304.051V285.091H319.145" stroke="#AFCCE4" stroke-linecap="round" stroke-linejoin="round"/>
<path d="M319.496 285.09V266.131H339.508" stroke="#AFCCE4" stroke-linecap="round" stroke-linejoin="round"/>
<path d="M339.86 266.131V247.171H359.873" stroke="#AFCCE4" stroke-linecap="round" stroke-linejoin="round"/>
<path d="M404.86 265.058H361.933C358.457 265.058 355.639 267.875 355.639 271.351V272.848C355.639 276.324 358.457 279.142 361.933 279.142H404.86C408.336 279.142 411.154 276.324 411.154 272.848V271.351C411.154 267.875 408.336 265.058 404.86 265.058Z" stroke="#AFCCE4" stroke-linecap="round" stroke-linejoin="round"/>
<path d="M195.574 319.128H159.019V332.51H195.574V319.128Z" stroke="#AFCCE4" stroke-linecap="round" stroke-linejoin="round"/>
<path d="M171.699 332.47H159.019V341.638H171.699V332.47Z" stroke="#AFCCE4" stroke-linecap="round" stroke-linejoin="round"/>
<path d="M195.573 332.47H182.894V341.638H195.573V332.47Z" stroke="#AFCCE4" stroke-linecap="round" stroke-linejoin="round"/>
<path d="M579 342H59" stroke="#AFCCE4" stroke-linecap="round" stroke-linejoin="round"/>
<path d="M56 342L52 342" stroke="#AFCCE4" stroke-linecap="round" stroke-linejoin="round"/>
<path d="M586.511 341.97H583" stroke="#AFCCE4" stroke-linecap="round" stroke-linejoin="round"/>
<path d="M238.039 129.57C251.042 129.57 261.583 119.029 261.583 106.026C261.583 93.0225 251.042 82.4814 238.039 82.4814C225.036 82.4814 214.495 93.0225 214.495 106.026C214.495 119.029 225.036 129.57 238.039 129.57Z" stroke="#AFCCE4" stroke-linecap="round" stroke-linejoin="round"/>
<path d="M238.04 91.2783V108.132L248.924 115.856" stroke="#AFCCE4" stroke-linecap="round" stroke-linejoin="round"/>
<path d="M362.682 278.771L353.904 341.619" stroke="#AFCCE4" stroke-linecap="round" stroke-linejoin="round"/>
<path d="M404.464 278.771L413.242 341.619" stroke="#AFCCE4" stroke-linecap="round" stroke-linejoin="round"/>
<path d="M383.397 278.771V341.267" stroke="#AFCCE4" stroke-linecap="round" stroke-linejoin="round"/>
<path d="M356.363 293.868H410.433" stroke="#AFCCE4" stroke-linecap="round" stroke-linejoin="round"/>
<path d="M349.69 329.33H416.752" stroke="#AFCCE4" stroke-linecap="round" stroke-linejoin="round"/>
<path d="M530.41 225.682C527.044 221.953 521.092 222.311 518.195 226.415L504.46 245.876L497.841 231.588L489.014 234.844L495.009 262.49C495.982 266.98 500.571 269.687 504.966 268.366C507.11 267.722 508.755 266.259 509.695 264.44C509.775 264.365 509.85 264.281 509.919 264.188L530.914 235.587C533.113 232.585 532.908 228.446 530.41 225.682Z" fill="#1B52C5"/>
<path d="M488.282 219.974C485.991 219.955 484.262 222.057 484.712 224.315L485.696 229.255L490.548 236.841L499.322 235.238L496.08 227.124L496.738 224.022C496.865 223.423 496.324 222.897 495.733 223.046C495.497 223.105 495.299 223.266 495.192 223.486L494.496 224.92L491.479 221.282C490.8 220.463 489.797 219.986 488.736 219.978L488.282 219.974Z" fill="#3A6FDF"/>
<path d="M498.831 231.808C498.581 231.314 497.997 231.091 497.482 231.293L489.387 234.457C488.886 234.653 488.607 235.189 488.734 235.711L489.489 238.831C489.631 239.416 490.225 239.771 490.807 239.617L500.085 237.166C500.746 236.991 501.078 236.251 500.77 235.641L498.831 231.808Z" fill="#F4F4F4"/>
<path d="M518.222 207.464H530.02L533.67 223.615H521.873L518.222 207.464Z" fill="#D4E8F5"/>
<path d="M519.626 214.656L529.457 208.165V209.248L521.264 220.805L519.626 214.656Z" fill="#3A6FDF"/>
<path d="M517.141 199.568C519.072 194.195 525.298 191.822 530.265 194.566C534.267 196.776 536.075 201.6 534.518 205.927L532.644 211.143C530.716 216.517 524.489 218.889 519.518 216.145C515.517 213.936 513.711 209.112 515.266 204.785L517.141 199.568Z" fill="#D4E8F5"/>
<path d="M531.311 214.682C531.802 213.996 532.603 211.872 532.908 211.037L534.915 205.557C536.532 201.14 534.717 196.232 530.642 194.003C526.633 191.809 521.802 192.894 518.975 196.17C519.459 198.535 520.929 200.671 523.195 201.911L526.772 203.869L526.537 204.823C525.522 208.931 527.615 213.053 531.311 214.682Z" fill="#273238"/>
<path d="M526.368 210.815C527.552 211.463 529.036 211.029 529.683 209.845C530.331 208.662 529.896 207.178 528.713 206.531C527.53 205.883 526.046 206.318 525.398 207.501C524.751 208.684 525.185 210.168 526.368 210.815Z" fill="#D4E8F5"/>
<path d="M526.953 209.745C527.544 210.069 528.286 209.852 528.61 209.26C528.934 208.669 528.716 207.927 528.125 207.603C527.533 207.279 526.791 207.496 526.468 208.088C526.144 208.679 526.361 209.421 526.953 209.745Z" fill="#3A6FDF"/>
<path d="M520.405 205.813C520.701 205.975 521.072 205.867 521.234 205.571C521.396 205.275 521.287 204.904 520.992 204.742C520.696 204.58 520.325 204.689 520.163 204.985C520.001 205.281 520.11 205.652 520.405 205.813Z" fill="#273238"/>
<path d="M516.362 204.298C516.657 204.46 517.028 204.351 517.19 204.055C517.352 203.76 517.244 203.389 516.948 203.227C516.652 203.065 516.281 203.173 516.119 203.469C515.957 203.765 516.066 204.136 516.362 204.298Z" fill="#273238"/>
<path d="M515.807 207.212C515.331 206.594 517.156 205.346 518.128 204.799L517.843 207.479C517.805 207.838 517.467 208.083 517.128 207.969C516.664 207.814 516.075 207.56 515.807 207.212Z" fill="#3A6FDF"/>
<path fill-rule="evenodd" clip-rule="evenodd" d="M518.457 201.457C518.103 201.196 517.648 201.107 517.218 201.212L517.1 201.241C516.853 201.302 516.604 201.155 516.543 200.914C516.481 200.673 516.63 200.428 516.877 200.368L516.995 200.339C517.692 200.167 518.431 200.313 519.007 200.735L519.068 200.78C519.271 200.929 519.313 201.211 519.161 201.41C519.009 201.609 518.722 201.65 518.518 201.501L518.457 201.457ZM520.333 201.728C520.363 201.482 520.592 201.306 520.844 201.335L521.035 201.358C522.087 201.482 523.025 202.065 523.59 202.943L523.654 203.043C523.789 203.253 523.725 203.531 523.51 203.663C523.296 203.797 523.013 203.734 522.878 203.523L522.813 203.424C522.395 202.774 521.702 202.344 520.925 202.252L520.734 202.23C520.482 202.2 520.302 201.975 520.333 201.728Z" fill="#273238"/>
<path d="M517.015 208.83L519.157 210.003C518.149 211.306 516.46 210.382 517.015 208.83Z" fill="white"/>
<path d="M519.028 227.337C519.608 224.489 521.77 222.228 524.583 221.528L530.013 220.176C540.56 217.55 550.855 225.279 551.326 236.17L553.048 276.511H509.006L519.028 227.337Z" fill="#3368D8"/>
<path d="M519.502 222.112C519.532 221.689 519.8 221.322 520.188 221.172L533.591 215.983C534.2 215.748 534.869 216.118 535.008 216.766L535.532 219.155C535.644 219.685 535.36 220.221 534.863 220.412L520.756 225.837C520.027 226.117 519.26 225.531 519.316 224.738L519.502 222.112Z" fill="#F4F4F4"/>
<path d="M551.359 236.819L553.048 276.511H528.92L514.629 256.897L532.021 251.028L536.3 234.966L551.359 236.819Z" fill="#1B52C5"/>
<path fill-rule="evenodd" clip-rule="evenodd" d="M520.022 240.555L535.293 219.036L535.87 219.45L519.314 242.776V224.772H520.022V240.555Z" fill="white"/>
<path d="M516.831 239.955C516.921 239.359 517.471 238.949 518.06 239.04L523.394 239.859C523.984 239.95 524.389 240.506 524.299 241.102L522.733 251.531C522.644 252.127 522.093 252.537 521.504 252.446L516.17 251.627C515.581 251.537 515.176 250.98 515.265 250.385L516.831 239.955Z" fill="#FFB84C"/>
<path d="M552.737 276.511H509.967L502.135 297.649L535.731 307.799C544.198 310.357 552.737 304.037 552.737 295.214V276.511Z" fill="#261B65"/>
<path d="M463.262 321.491H480.579L475.095 332.424H457.777L463.262 321.491Z" fill="#D4E8F5"/>
<path d="M465.96 331.196C465.96 329.287 464.419 327.739 462.517 327.739C461.614 327.739 460.721 327.939 459.903 328.323L443.489 336.032C442.727 336.389 442.161 337.067 441.943 337.883C441.458 339.699 442.822 341.483 444.696 341.483H471.173C472.311 341.483 473.356 340.855 473.893 339.848L475.84 336.191C476.08 335.742 476.205 335.241 476.205 334.731V333.931C476.205 333.1 476.042 332.308 475.746 331.584H465.96V331.196Z" fill="#261B65"/>
<path d="M442.521 336.798C442.253 337.114 442.054 337.489 441.944 337.899C441.458 339.708 442.824 341.483 444.701 341.483H471.221C472.36 341.483 473.407 340.857 473.944 339.855L474.956 337.968C474.797 337.993 474.636 338.006 474.471 338.006H444.855C443.873 338.006 443.031 337.52 442.521 336.798Z" fill="#B5D5FF"/>
<path d="M493.047 302.584C495.222 298.64 499.986 296.935 504.161 298.606L519.688 304.821L525.561 276.51L487.868 275.266C484.408 275.152 481.194 277.055 479.624 280.149L457.974 322.805C457.378 323.979 458.208 325.374 459.522 325.404L479.111 325.863C479.775 325.879 480.393 325.524 480.714 324.941L493.047 302.584Z" fill="#261B65"/>
<path d="M545.628 329.607L541.07 312.619L552.24 308.607L556.791 325.596L545.628 329.607Z" fill="#D4E8F5"/>
<path d="M553.115 318.38C551.266 318.874 550.173 320.767 550.67 322.61C550.902 323.485 551.326 324.298 551.909 324.991L563.615 338.902C564.159 339.548 564.96 339.92 565.808 339.92C567.69 339.92 569.055 338.137 568.571 336.322L561.694 310.668C561.396 309.567 560.515 308.716 559.409 308.457L555.367 307.515C554.877 307.4 554.36 307.408 553.863 307.54L553.095 307.747C552.293 307.962 551.565 308.325 550.948 308.798L553.486 318.28L553.115 318.38Z" fill="#261B65"/>
<path d="M564.629 339.649C565 339.826 565.411 339.921 565.835 339.921C567.696 339.921 569.054 338.143 568.571 336.333L561.76 310.752C561.469 309.652 560.594 308.805 559.495 308.547L557.421 308.06C557.487 308.205 557.54 308.358 557.587 308.517L565.192 337.085C565.444 338.032 565.192 338.97 564.629 339.649Z" fill="#B5D5FF"/>
<path d="M524.589 276.511L504.625 323.459C501.78 330.15 505.731 337.77 512.859 339.335C517.196 340.288 521.7 338.707 524.478 335.257L550.703 302.281L526.923 276.511H524.589Z" fill="#261B65"/>
<path d="M544.032 312.95C543.27 310.504 540.434 309.404 538.222 310.7L513.766 325.05L518.787 339.02L545.503 331.418C547.649 330.807 548.868 328.549 548.212 326.417L544.032 312.95Z" fill="#261B65"/>
<path d="M527.434 315.869L543.873 311.434L549.146 304.312L527.434 315.869Z" fill="#261B65"/>
<path fill-rule="evenodd" clip-rule="evenodd" d="M543.594 280.577C543.787 280.546 543.972 280.68 543.999 280.875L545.734 292.044C546.344 296 544.774 299.979 541.627 302.457L523.918 316.388C523.636 316.609 523.819 317.061 524.176 317.025L543.071 315.123C543.27 315.103 543.449 315.247 543.469 315.444C543.488 315.641 543.343 315.816 543.144 315.836L524.248 317.738C523.177 317.846 522.628 316.491 523.474 315.826L541.183 301.895C544.131 299.576 545.595 295.855 545.025 292.154L543.29 280.985C543.263 280.79 543.396 280.607 543.594 280.577Z" fill="#2149CC"/>
<path fill-rule="evenodd" clip-rule="evenodd" d="M518.419 277.644C518.511 277.464 518.727 277.395 518.9 277.49L524.875 280.77H551.134C551.326 280.77 551.491 280.935 551.491 281.139C551.491 281.343 551.326 281.508 551.134 281.508H524.786C524.728 281.508 524.671 281.494 524.62 281.465L518.567 278.143C518.394 278.047 518.327 277.824 518.419 277.644Z" fill="#2149CC"/>
<path fill-rule="evenodd" clip-rule="evenodd" d="M539.235 313.388C539.421 313.327 539.613 313.427 539.679 313.612L544.595 328.527C544.654 328.711 544.555 328.91 544.37 328.97C544.191 329.031 543.992 328.931 543.926 328.747L539.01 313.831C538.95 313.647 539.05 313.449 539.235 313.388Z" fill="#2149CC"/>
<path d="M103.787 125.527C103.787 122.828 105.975 120.641 108.673 120.641H185.737C188.435 120.641 190.623 122.828 190.623 125.527V181.048C190.623 183.746 188.435 185.934 185.737 185.934H108.673C105.975 185.934 103.787 183.746 103.787 181.048V125.527Z" fill="#E2F0FA"/>
<path d="M115.854 129.198H133.658" stroke="#46E058" stroke-width="6" stroke-linecap="round" stroke-linejoin="round"/>
<path d="M115.854 138.445H124.6" stroke="#A8CDE7" stroke-width="6" stroke-linecap="round" stroke-linejoin="round"/>
<path d="M144.239 146.42H150.413V172.879H144.239V146.42Z" fill="#46E058"/>
<path d="M153.939 152.77H160.113V172.878H153.939V152.77Z" fill="#3368D8"/>
<path d="M163.643 157.709H169.816V172.879H163.643V157.709Z" fill="#46E058"/>
<path d="M179.518 162.472H173.344V172.879H179.518V162.472Z" fill="#3368D8"/>
<path fill-rule="evenodd" clip-rule="evenodd" d="M159.745 136.53C155.584 136.53 151.788 138.081 148.905 140.635C148.767 140.757 148.556 140.744 148.434 140.606C148.312 140.469 148.325 140.258 148.463 140.136C151.463 137.478 155.416 135.864 159.745 135.864C169.128 135.864 176.736 143.445 176.736 152.799V155.764C176.736 155.948 176.587 156.097 176.403 156.097C176.219 156.097 176.07 155.948 176.07 155.764V152.799C176.07 143.815 168.762 136.53 159.745 136.53Z" fill="white"/>
<path d="M148.686 141.237C149.095 141.237 149.427 140.905 149.427 140.496C149.427 140.087 149.095 139.755 148.686 139.755C148.276 139.755 147.944 140.087 147.944 140.496C147.944 140.905 148.276 141.237 148.686 141.237Z" fill="#46E058"/>
<path d="M157.727 136.937C158.136 136.937 158.468 136.606 158.468 136.196C158.468 135.787 158.136 135.455 157.727 135.455C157.318 135.455 156.986 135.787 156.986 136.196C156.986 136.606 157.318 136.937 157.727 136.937Z" fill="#3368D8"/>
<path d="M166.77 138.421C167.179 138.421 167.511 138.089 167.511 137.68C167.511 137.27 167.179 136.938 166.77 136.938C166.361 136.938 166.029 137.27 166.029 137.68C166.029 138.089 166.361 138.421 166.77 138.421Z" fill="#46E058"/>
<path d="M176.403 156.653C176.813 156.653 177.144 156.321 177.144 155.912C177.144 155.503 176.813 155.171 176.403 155.171C175.994 155.171 175.662 155.503 175.662 155.912C175.662 156.321 175.994 156.653 176.403 156.653Z" fill="#3368D8"/>
<path d="M115.115 147.861C115.115 146.635 116.109 145.641 117.335 145.641H134.225C135.452 145.641 136.446 146.635 136.446 147.861V155.316C136.446 156.543 135.452 157.537 134.225 157.537H117.335C116.109 157.537 115.115 156.543 115.115 155.316V147.861Z" fill="#C5DEF0" fill-opacity="0.47"/>
<path d="M115.115 162.834C115.115 161.608 116.109 160.613 117.335 160.613H134.225C135.452 160.613 136.446 161.608 136.446 162.834V170.289C136.446 171.515 135.452 172.51 134.225 172.51H117.335C116.109 172.51 115.115 171.515 115.115 170.289V162.834Z" fill="#C5DEF0" fill-opacity="0.47"/>
<path fill-rule="evenodd" clip-rule="evenodd" d="M97.7717 149.179C99.3664 149.179 100.659 147.887 100.659 146.292C100.659 144.697 99.3664 143.405 97.7717 143.405C96.1777 143.405 94.8845 144.697 94.8845 146.292C94.8845 147.887 96.1777 149.179 97.7717 149.179ZM97.7717 149.846C99.7347 149.846 101.325 148.254 101.325 146.292C101.325 144.33 99.7347 142.738 97.7717 142.738C95.8094 142.738 94.2188 144.33 94.2188 146.292C94.2188 148.254 95.8094 149.846 97.7717 149.846Z" fill="#F4F4F4"/>
<path d="M82.2236 149.846H94.2162V162.727H82.2236V149.846Z" fill="#D4E8F5"/>
<path d="M94.2175 155.397V159.839L90.1094 154.842L94.2175 155.397Z" fill="#3A6FDF"/>
<path d="M82.002 145.182C82.002 140.766 85.5814 137.187 89.997 137.187C94.4126 137.187 97.992 140.766 97.992 145.182V149.623C97.992 154.039 94.4126 157.618 89.997 157.618C85.5814 157.618 82.002 154.039 82.002 149.623V145.182Z" fill="#D4E8F5"/>
<path d="M100.039 140.119L97.0609 144.822C96.6872 145.411 96.2261 145.935 95.6961 146.377C95.6961 146.385 95.6961 146.394 95.6961 146.404V149.957C95.6961 150.632 95.1496 151.178 94.4752 151.178C93.8001 151.178 93.2535 150.632 93.2535 149.957V147.708L92.3651 148.069L91.4283 152.643C90.8745 155.345 88.4968 157.286 85.7381 157.286C82.6628 157.286 80.1201 154.888 79.9399 151.818L79.3708 142.146C79.2993 140.927 79.4954 139.708 79.9452 138.574C81.2086 135.39 84.2866 133.301 87.7111 133.301H96.2871C99.7877 133.301 101.912 137.161 100.039 140.119Z" fill="#001748"/>
<path fill-rule="evenodd" clip-rule="evenodd" d="M101.202 145.536C101.252 145.713 101.149 145.897 100.972 145.947L91.5333 148.612C91.3564 148.662 91.1722 148.559 91.1218 148.382C91.0721 148.205 91.1755 148.021 91.3524 147.971L100.791 145.305C100.968 145.256 101.152 145.359 101.202 145.536Z" fill="#F4F4F4"/>
<path d="M91.9052 152.177C93.193 152.177 94.237 151.133 94.237 149.846C94.237 148.558 93.193 147.514 91.9052 147.514C90.6173 147.514 89.5732 148.558 89.5732 149.846C89.5732 151.133 90.6173 152.177 91.9052 152.177Z" fill="#D4E8F5"/>
<path d="M91.9065 151.066C92.5811 151.066 93.128 150.519 93.128 149.845C93.128 149.17 92.5811 148.623 91.9065 148.623C91.2319 148.623 90.6851 149.17 90.6851 149.845C90.6851 150.519 91.2319 151.066 91.9065 151.066Z" fill="#2149CC"/>
<path d="M117.307 159.889C117.617 159.488 117.523 158.909 117.104 158.626C116.766 158.399 116.316 158.434 116.018 158.71L110.503 163.819L113.532 159.9C113.841 159.499 113.748 158.921 113.328 158.637C112.991 158.409 112.541 158.444 112.242 158.721L106.036 164.47C105.934 164.539 105.836 164.615 105.741 164.698L102.346 167.655C101.046 168.788 100.91 170.761 102.043 172.062L105.496 176.026C106.629 177.328 108.602 177.463 109.903 176.33L111.931 174.564L111.975 174.572C112.962 174.777 113.985 174.72 114.942 174.406L116.987 173.735C117.413 173.595 117.542 173.054 117.223 172.738C116.885 172.401 116.426 172.212 115.947 172.213L114.476 172.217L121.174 165.901C121.494 165.601 121.515 165.1 121.223 164.774C120.965 164.484 120.538 164.419 120.204 164.618L114.319 168.133L120.548 162.541C120.925 162.203 120.938 161.616 120.576 161.263C120.285 160.978 119.837 160.931 119.493 161.149L113.287 165.09L117.307 159.889Z" fill="white"/>
<path d="M73.0254 321.63H87.6833L87.2566 336.065H72.1377L73.0254 321.63Z" fill="#D4E8F5"/>
<path d="M98.6986 336.097L92.4241 333.632C92.0279 333.476 91.6629 333.251 91.3468 332.966L88.2735 330.202C87.1433 329.185 85.3426 329.64 84.8312 331.072C84.4926 332.019 83.5386 332.602 82.5409 332.471L75.1342 331.502C73.2606 331.256 71.5229 332.52 71.179 334.379L70.6828 337.061C70.4218 338.474 71.0372 339.905 72.243 340.688L72.451 340.823C73.0267 341.197 73.6985 341.395 74.3849 341.395H95.6889C98.0659 341.395 99.7732 339.106 99.0941 336.827L98.9623 336.383C98.9232 336.252 98.8258 336.147 98.6986 336.097Z" fill="#3368D8"/>
<path d="M99.0186 336.384H98.4323C96.9012 336.384 95.6611 337.625 95.6611 339.155C95.6611 339.268 95.6677 339.378 95.6803 339.488H73.9191C73.8085 338.612 73.0619 337.935 72.1562 337.935H70.4894C70.4688 338.996 70.9935 340.009 71.9025 340.599L72.4928 340.982C72.9956 341.309 73.5832 341.483 74.1828 341.483H96.3746C98.4515 341.483 99.9421 339.483 99.3492 337.492L99.0239 336.402C99.0219 336.396 99.0206 336.39 99.0186 336.384Z" fill="#C3E5FE"/>
<path d="M70.2329 215.583C70.2329 213.621 71.8236 212.029 73.7859 212.029H91.8033C93.8398 212.029 95.4596 213.738 95.3516 215.772L89.6018 324.027C89.4984 325.963 87.8634 327.459 85.9262 327.39L73.6594 326.952C71.7474 326.884 70.2329 325.314 70.2329 323.401V215.583Z" fill="#261B65"/>
<path d="M94.2295 236.903L91.2185 293.588L91.1092 293.979L89.7769 236.903H94.2295Z" fill="#0F0930"/>
<path d="M118.446 321.63H133.565L138.434 336.065H123.315L118.446 321.63Z" fill="#D4E8F5"/>
<path d="M87.0354 219.646C86.404 217.381 88.1073 215.139 90.4585 215.139H111.387C113.066 215.139 114.515 216.313 114.863 217.955L137.171 323.224C137.64 325.434 135.954 327.514 133.695 327.514H119.792C118.197 327.514 116.798 326.451 116.369 324.914L87.0354 219.646Z" fill="#261B65"/>
<path d="M114.846 219.694C115.062 220.039 115.221 220.426 115.309 220.842L118.848 237.542L117.716 236.246L109.544 220.247L114.846 219.694Z" fill="#0F0930"/>
<path d="M148.226 336.097L141.951 333.632C141.555 333.476 141.19 333.251 140.874 332.966L137.801 330.202C136.67 329.185 134.87 329.64 134.358 331.072C134.019 332.019 133.066 332.602 132.068 332.471L124.661 331.502C122.788 331.256 121.05 332.52 120.706 334.379L120.21 337.061C119.948 338.474 120.564 339.905 121.77 340.688L121.978 340.823C122.554 341.197 123.226 341.395 123.912 341.395H145.216C147.593 341.395 149.3 339.106 148.621 336.827L148.489 336.383C148.45 336.252 148.353 336.147 148.226 336.097Z" fill="#3368D8"/>
<path d="M148.547 336.384H147.961C146.43 336.384 145.189 337.625 145.189 339.155C145.189 339.268 145.195 339.378 145.209 339.488H123.447C123.337 338.612 122.589 337.935 121.685 337.935H120.018C119.997 338.996 120.522 340.009 121.431 340.599L122.02 340.982C122.524 341.309 123.111 341.483 123.711 341.483H145.903C147.979 341.483 149.47 339.483 148.878 337.492L148.552 336.402C148.55 336.396 148.548 336.39 148.547 336.384Z" fill="#C3E5FE"/>
<path d="M66.7175 174.495C66.3359 168.112 71.4086 162.727 77.8024 162.727H100.697C106.572 162.727 111.43 167.302 111.782 173.167L115.556 221.801H75.5599C72.04 221.801 69.1349 219.05 68.9441 215.535L66.7175 174.495Z" fill="#3368D8"/>
<path d="M109.878 185.712L107.784 221.912H115.557L113.319 191.179L109.878 185.712Z" fill="#1B52C5"/>
<path d="M80.5615 162.726C80.5615 161.07 81.9038 159.728 83.5594 159.728H94.1083C95.7646 159.728 97.1068 161.07 97.1068 162.726H80.5615Z" fill="#98B3EE"/>
<path d="M147.241 158.647C147.42 158.174 147.962 157.951 148.423 158.161C148.793 158.329 148.999 158.731 148.919 159.13L147.489 166.284L147.506 166.292L150.882 160.716C151.144 160.283 151.718 160.161 152.133 160.451C152.467 160.683 152.597 161.116 152.446 161.494L150.009 167.62C150.048 167.654 150.087 167.688 150.125 167.723L152.232 164.242C152.494 163.809 153.068 163.687 153.483 163.977C153.817 164.209 153.946 164.642 153.796 165.019L151.551 170.664C151.575 170.996 151.563 171.334 151.51 171.674L150.794 176.307L144.068 202.703C142.488 208.903 135.07 211.451 130.015 207.529L109.936 191.952L108.141 165.529L131.916 186.627L138.906 171.346L139.037 170.871C138.532 170.05 138.242 169.115 138.192 168.152L138.081 166.002C138.058 165.554 138.517 165.239 138.926 165.422C139.363 165.618 139.704 165.977 139.876 166.424L140.198 167.268C140.426 166.892 140.705 166.559 141.023 166.274L143.88 159.274C144.046 158.868 144.504 158.668 144.915 158.822C145.278 158.96 145.492 159.334 145.427 159.716L144.493 165.161C144.579 165.17 144.666 165.182 144.752 165.198L147.241 158.647Z" fill="white"/>
<path d="M150.01 179.378L137.499 174.421L131.914 186.627L108.14 165.529L105.785 190.154L130.014 207.529C135.069 211.45 142.487 208.904 144.067 202.703L150.01 179.378Z" fill="#3368D8"/>
<path d="M136.192 177.279L148.674 184.628L150.755 176.46L138.671 171.861L136.192 177.279Z" fill="#98B3EE"/>
<path d="M266.626 195.949C265.377 191.67 267.831 187.188 272.105 185.939C276.379 184.689 280.855 187.146 282.104 191.425L288.339 212.811L298.406 200.173L300.573 196.534C300.721 193.182 301.131 186.591 302.066 187.175C302.829 187.652 303.126 190.166 303.242 192.052L303.551 191.534L303.582 191.559L306.244 186.834C306.645 186.122 307.66 186.1 308.092 186.792L312.991 194.64C313.238 195.034 313.203 195.542 312.906 195.9L308.319 201.41C308.207 201.545 308.072 201.644 307.926 201.708L305.187 205.322L290.791 230.35C288.057 235.104 281.99 235.443 278.506 232.266C277.404 231.29 276.555 230.002 276.112 228.484L266.626 195.949Z" fill="#D4E8F5"/>
<path d="M308.407 188.402C308.043 189.101 307.162 189.342 306.494 188.926C305.86 188.531 305.666 187.697 306.061 187.064L309.845 180.984C310.178 180.449 310.896 180.314 311.401 180.69C311.823 181.005 311.955 181.581 311.712 182.048L308.407 188.402Z" fill="#D4E8F5"/>
<path d="M309.996 191.051C309.516 191.732 308.549 191.842 307.929 191.286C307.362 190.779 307.307 189.911 307.803 189.336L314.769 181.278C315.085 180.912 315.637 180.874 316.001 181.192C316.336 181.485 316.396 181.985 316.139 182.349L309.996 191.051Z" fill="#D4E8F5"/>
<path d="M311.245 193.984C310.635 194.632 309.592 194.59 309.035 193.895C308.545 193.282 308.626 192.391 309.218 191.875L316.879 185.22C317.308 184.847 317.967 184.93 318.289 185.4C318.543 185.769 318.504 186.265 318.198 186.591L311.245 193.984Z" fill="#D4E8F5"/>
<path d="M310.123 198.026C309.515 198.527 308.607 198.4 308.159 197.751C307.737 197.139 307.891 196.301 308.502 195.878L317.21 189.867C317.614 189.588 318.167 189.685 318.452 190.086C318.724 190.47 318.653 190.999 318.29 191.297L310.123 198.026Z" fill="#D4E8F5"/>
<path d="M287.12 208.63L282.104 191.425C280.855 187.146 276.379 184.689 272.105 185.939C267.831 187.188 265.377 191.67 266.626 195.949L272.886 217.422L287.12 208.63Z" fill="#3368D8"/>
<path d="M285.667 209.719L280.356 192.484L266.613 195.921L272.547 217.161L285.667 209.719Z" fill="#3368D8"/>
<path fill-rule="evenodd" clip-rule="evenodd" d="M266.043 155.883C264.135 156.36 258.887 159.568 253.162 168.584C251.301 171.515 249.548 172.355 247.595 172.421C245.335 171.458 242.847 170.925 240.235 170.925C229.861 170.925 221.451 179.335 221.451 189.709C221.451 200.083 229.861 208.493 240.235 208.493C249.8 208.493 257.694 201.345 258.869 192.099L275.882 192.02L266.043 155.883Z" fill="black"/>
<path d="M215.94 312.818L224.191 322.677C224.543 323.097 224.522 323.714 224.141 324.109L210.428 338.341C209.904 338.886 208.995 338.735 208.675 338.05L205.8 331.891C205.689 331.654 205.67 331.385 205.744 331.134L208.532 321.732C209.034 319.38 210.136 314.631 210.527 314.45L214.658 312.533C215.101 312.328 215.627 312.445 215.94 312.818Z" fill="#3368D8"/>
<path d="M223.463 321.819C221.638 321.13 219.495 321.532 218.049 323.008L209.623 331.607C207.684 333.586 207.732 336.747 209.73 338.667C209.732 338.669 209.734 338.671 209.735 338.673C209.952 338.636 210.161 338.532 210.33 338.358L224.14 324.115C224.523 323.72 224.545 323.103 224.191 322.683L223.463 321.819Z" fill="#261B65"/>
<path d="M211.636 313.994L209.275 315.091C208.884 315.272 207.783 320.024 207.282 322.377L204.495 331.784C204.421 332.035 204.441 332.304 204.552 332.542L207.425 338.704C207.67 339.229 208.507 339.511 209.733 339.098C210.652 338.787 211.2 337.889 211.138 337.757L208.716 332.563C207.967 330.955 206.697 331.391 206.776 331.13L209.706 321.338C210.174 319.169 211.138 315.042 211.636 313.994Z" fill="#C3E5FE"/>
<path fill-rule="evenodd" clip-rule="evenodd" d="M219.813 329.688C219.413 329.977 218.854 329.888 218.565 329.488L215.251 324.912C214.962 324.512 215.051 323.953 215.452 323.664C215.852 323.373 216.411 323.463 216.7 323.863L220.013 328.438C220.303 328.838 220.214 329.398 219.813 329.688Z" fill="#C3E5FE"/>
<path fill-rule="evenodd" clip-rule="evenodd" d="M217.15 333.293C216.75 333.583 216.191 333.493 215.902 333.093L212.588 328.518C212.299 328.118 212.388 327.559 212.788 327.269C213.189 326.979 213.748 327.068 214.037 327.468L217.35 332.044C217.64 332.444 217.55 333.003 217.15 333.293Z" fill="#C3E5FE"/>
<path d="M212.581 317.088C213.039 318.074 214.21 318.501 215.195 318.042C216.181 317.584 216.608 316.413 216.149 315.428C215.691 314.442 214.52 314.015 213.535 314.474C212.549 314.932 212.122 316.103 212.581 317.088Z" fill="#E2F0FA"/>
<path d="M260.848 243.631C257.131 241.034 251.961 242.978 250.884 247.379L241.14 287.152C241.041 287.553 240.983 287.957 240.962 288.36L214.759 312.276L224.602 323.99L260.527 303.135C262.544 302.541 264.268 300.977 264.911 298.714L276.049 259.543C276.799 256.903 275.793 254.077 273.542 252.504L260.848 243.631Z" fill="#120A3E"/>
<path d="M241.196 234.879C241.503 229.985 245.73 226.261 250.649 226.549L269.753 227.669C274.48 227.946 278.17 231.842 278.17 236.553V258.242C278.17 263.157 274.166 267.14 269.227 267.14H248.694C243.535 267.14 239.447 262.811 239.767 257.688L241.196 234.879Z" fill="#261B65"/>
<path d="M236.632 189.662C236.415 183.727 241.722 179.103 247.566 180.135L274.218 184.843C278.672 185.629 281.918 189.503 281.918 194.03V227.824C281.918 232.977 277.745 237.153 272.598 237.153H247.349C242.333 237.153 238.217 233.181 238.034 228.164L236.632 189.662Z" fill="#3368D8"/>
<path d="M264.523 189.033C258.099 188.686 255.68 181.552 255.68 181.552L271.923 184.402C271.923 184.402 270.492 189.357 264.523 189.033Z" fill="#D4E8F5"/>
<path d="M265.987 237.153H247.197C242.195 237.153 238.09 233.17 237.907 228.14L236.914 200.735L236.625 188.046L250.569 184.988L265.987 237.153Z" fill="#3368D8"/>
<path fill-rule="evenodd" clip-rule="evenodd" d="M255.911 181.886C256.095 181.818 256.298 181.913 256.365 182.098L266.363 209.522L270.908 184.664C270.944 184.47 271.128 184.341 271.321 184.377C271.513 184.413 271.639 184.6 271.604 184.794L266.825 210.934C266.796 211.092 266.666 211.212 266.507 211.225C266.348 211.239 266.2 211.144 266.145 210.993L255.702 182.346C255.634 182.161 255.727 181.955 255.911 181.886Z" fill="white"/>
<path d="M268.372 206.229H264.85C263.752 206.229 262.862 207.118 262.862 208.216V216.736C262.862 217.833 263.752 218.723 264.85 218.723H268.372C269.469 218.723 270.359 217.833 270.359 216.736V208.216C270.359 207.118 269.469 206.229 268.372 206.229Z" fill="#FFB84C"/>
<path d="M301.776 322.027L314.283 318.717C314.815 318.576 315.37 318.857 315.569 319.368L322.763 337.83C323.038 338.536 322.515 339.297 321.754 339.297H314.907C314.643 339.297 314.389 339.201 314.191 339.027L306.781 332.518C304.845 331.067 300.972 328.057 300.972 327.626V323.068C300.972 322.579 301.302 322.152 301.776 322.027Z" fill="#3368D8"/>
<path d="M313.128 319.003C311.723 320.345 311.184 322.428 311.928 324.339L316.262 335.475C317.259 338.037 320.184 339.321 322.795 338.343C322.797 338.342 322.799 338.342 322.801 338.34C322.859 338.132 322.853 337.902 322.764 337.677L315.525 319.362C315.324 318.854 314.766 318.576 314.231 318.716L313.128 319.003Z" fill="#261B65"/>
<path d="M300.972 326.489V329.056C300.972 329.48 304.816 332.444 306.737 333.872L314.09 340.28C314.286 340.451 314.539 340.546 314.801 340.546H321.595C322.174 340.546 322.658 340.192 322.837 338.955C322.837 337.894 322.446 336.834 322.3 336.834H316.573C314.801 336.834 314.661 338.149 314.457 337.97L306.816 331.273C305.047 329.951 301.712 327.37 300.972 326.489Z" fill="#C3E5FE"/>
<path d="M245.81 255.561C241.463 258.039 241.481 264.335 245.842 266.789L284.861 288.74C285.2 288.931 285.552 289.088 285.911 289.212L300.633 322.429L315.966 320.102L305.392 273.629C305.34 273.248 305.255 272.872 305.136 272.505L305.091 272.302L305.073 272.317C304.608 271.015 303.717 269.842 302.414 269.031L267.288 247.178C265.292 245.937 262.781 245.888 260.739 247.052L245.81 255.561Z" fill="#261B65"/>
<path fill-rule="evenodd" clip-rule="evenodd" d="M318.827 325.66C318.919 326.151 318.606 326.625 318.126 326.72L312.646 327.804C312.167 327.9 311.703 327.579 311.61 327.089C311.517 326.599 311.831 326.124 312.31 326.03L317.791 324.944C318.27 324.85 318.734 325.17 318.827 325.66Z" fill="#C3E5FE"/>
<path fill-rule="evenodd" clip-rule="evenodd" d="M320.948 329.639C321.04 330.129 320.727 330.604 320.248 330.698L314.767 331.784C314.288 331.878 313.824 331.558 313.731 331.067C313.638 330.577 313.952 330.103 314.431 330.008L319.912 328.923C320.391 328.828 320.855 329.149 320.948 329.639Z" fill="#C3E5FE"/>
<path d="M304.253 326.802C305.374 326.802 306.283 325.893 306.283 324.772C306.283 323.65 305.374 322.741 304.253 322.741C303.132 322.741 302.223 323.65 302.223 324.772C302.223 325.893 303.132 326.802 304.253 326.802Z" fill="#E2F0FA"/>
<path fill-rule="evenodd" clip-rule="evenodd" d="M243.607 238.754C243.332 238.643 243.021 238.777 242.911 239.052C242.801 239.327 242.935 239.64 243.209 239.75C243.766 239.973 244.746 240.292 245.988 240.575C245.978 240.621 245.968 240.669 245.959 240.72C245.872 241.158 245.752 241.79 245.618 242.562C245.352 244.105 245.031 246.215 244.818 248.48C244.604 250.743 244.495 253.174 244.657 255.355C244.818 257.514 245.25 259.516 246.185 260.847C246.682 261.554 247.707 262.311 249.021 263.098C250.359 263.901 252.076 264.78 254.041 265.713C257.238 267.232 261.122 268.909 265.148 270.648C266.071 271.047 267.003 271.449 267.935 271.853C272.938 274.022 277.967 276.252 282.046 278.372C284.085 279.432 285.875 280.459 287.301 281.433C288.736 282.412 289.758 283.309 290.303 284.098C291.466 285.78 292.83 288.896 294.23 292.68C295.622 296.447 297.031 300.824 298.291 304.99C299.551 309.153 300.66 313.101 301.455 316.007C301.852 317.461 302.171 318.653 302.39 319.483C302.5 319.897 302.584 320.221 302.641 320.441C302.67 320.55 302.692 320.635 302.706 320.691L302.728 320.776C302.802 321.063 303.095 321.236 303.381 321.162C303.668 321.088 303.841 320.796 303.766 320.509L303.248 320.643C303.766 320.509 303.766 320.508 303.766 320.508V320.507L303.744 320.422C303.729 320.365 303.707 320.28 303.679 320.17C303.621 319.949 303.536 319.624 303.426 319.208C303.206 318.376 302.887 317.18 302.489 315.724C301.693 312.811 300.58 308.854 299.317 304.678C298.054 300.503 296.638 296.104 295.235 292.307C293.837 288.529 292.433 285.294 291.184 283.488C290.524 282.532 289.368 281.545 287.904 280.545C286.43 279.538 284.598 278.489 282.54 277.419C278.424 275.28 273.362 273.037 268.361 270.868C267.424 270.462 266.489 270.059 265.564 269.659C261.539 267.92 257.677 266.253 254.501 264.743C252.547 263.815 250.866 262.953 249.571 262.178C248.253 261.388 247.414 260.731 247.062 260.23C246.3 259.146 245.884 257.392 245.726 255.275C245.57 253.179 245.674 250.814 245.884 248.582C246.095 246.352 246.411 244.27 246.674 242.744C246.806 241.983 246.924 241.36 247.01 240.929C247.019 240.881 247.028 240.836 247.037 240.793C248.353 241.039 249.871 241.219 251.447 241.219C255.043 241.219 269.893 240.263 276.848 239.787C277.143 239.767 277.366 239.511 277.346 239.215C277.325 238.919 277.07 238.696 276.775 238.717C269.796 239.194 254.996 240.146 251.447 240.146C249.792 240.146 248.2 239.936 246.864 239.666C246.824 239.647 246.783 239.631 246.738 239.621C246.689 239.611 246.641 239.608 246.594 239.61C245.237 239.321 244.17 238.979 243.607 238.754ZM302.728 320.776L303.248 320.643C302.729 320.776 302.728 320.776 302.728 320.776Z" fill="#46E058"/>
<path fill-rule="evenodd" clip-rule="evenodd" d="M254.878 240.289C255.171 240.225 255.459 240.41 255.522 240.7L254.993 240.815C255.522 240.7 255.522 240.701 255.523 240.701V240.703L255.524 240.707L255.526 240.719C255.528 240.729 255.532 240.743 255.535 240.761C255.542 240.796 255.551 240.847 255.561 240.912C255.583 241.041 255.609 241.226 255.631 241.456C255.676 241.915 255.706 242.559 255.646 243.303C255.528 244.788 255.051 246.709 253.593 248.351C252.101 250.032 250.03 250.504 248.402 250.574C247.582 250.61 246.853 250.545 246.329 250.472C246.067 250.434 245.855 250.395 245.707 250.365C245.633 250.35 245.574 250.336 245.533 250.327C245.513 250.322 245.497 250.318 245.485 250.316L245.472 250.313L245.468 250.311H245.466H245.466C245.466 250.311 245.465 250.311 245.601 249.79L245.465 250.311C245.175 250.236 245.001 249.942 245.077 249.655C245.152 249.366 245.447 249.194 245.737 249.268H245.737L245.745 249.27C245.752 249.272 245.764 249.275 245.78 249.278C245.812 249.286 245.861 249.297 245.925 249.31C246.054 249.337 246.244 249.372 246.481 249.405C246.957 249.472 247.617 249.53 248.355 249.498C249.841 249.434 251.565 249.008 252.781 247.638C254.032 246.229 254.458 244.56 254.566 243.218C254.619 242.549 254.592 241.97 254.552 241.56C254.533 241.355 254.509 241.193 254.491 241.085C254.483 241.03 254.476 240.989 254.47 240.963C254.468 240.95 254.466 240.94 254.465 240.935L254.464 240.93V240.929C254.4 240.639 254.586 240.352 254.878 240.289Z" fill="#46E058"/>
<path d="M260.187 171.797C260.545 169.056 263.06 167.127 265.8 167.489C268.533 167.851 270.458 170.358 270.1 173.092L268.639 184.27L258.728 182.957L260.187 171.797Z" fill="#D4E8F5"/>
<path d="M269.22 181.865C264.556 181.116 260.99 177.021 260.99 172.083V168.787C262.159 167.623 263.826 166.998 265.575 167.232C268.591 167.637 270.712 170.444 270.313 173.5L269.22 181.865Z" fill="#3A6FDF"/>
<path d="M260.509 164.031C260.509 159.143 264.439 155.181 269.286 155.181C274.134 155.181 278.064 159.143 278.064 164.031V169.503C278.064 174.391 274.134 178.354 269.286 178.354C264.439 178.354 260.509 174.391 260.509 169.503V164.031Z" fill="#D4E8F5"/>
<path d="M260.509 167.821C265.142 167.754 269.063 164.782 270.489 160.666C272.341 162.175 274.715 163.081 277.303 163.081C277.559 163.081 277.813 163.072 278.064 163.054C277.648 158.638 273.885 155.181 269.305 155.181C264.447 155.181 260.509 159.072 260.509 163.871V167.821Z" fill="black"/>
<path d="M261.913 171.332C263.853 171.332 265.425 169.76 265.425 167.821C265.425 165.882 263.853 164.31 261.913 164.31C259.974 164.31 258.402 165.882 258.402 167.821C258.402 169.76 259.974 171.332 261.913 171.332Z" fill="#D4E8F5"/>
<path d="M262.264 169.225C263.234 169.225 264.02 168.439 264.02 167.469C264.02 166.5 263.234 165.714 262.264 165.714C261.295 165.714 260.509 166.5 260.509 167.469C260.509 168.439 261.295 169.225 262.264 169.225Z" fill="#3A6FDF"/>
<path d="M260.053 172.494C260.916 172.494 261.615 171.795 261.615 170.932C261.615 170.069 260.916 169.37 260.053 169.37C259.19 169.37 258.491 170.069 258.491 170.932C258.491 171.795 259.19 172.494 260.053 172.494Z" fill="white"/>
<path fill-rule="evenodd" clip-rule="evenodd" d="M236.997 189.38C236.464 184.967 239.607 180.957 244.017 180.424L244.529 180.362C248.939 179.828 252.946 182.973 253.48 187.386L257.268 218.727L282.864 237.271L283.046 237.459C283.8 237.574 291.459 238.772 291.799 240.132C292.038 241.088 289.439 241.342 286.919 241.447L292.455 247.146C292.63 247.325 292.771 247.521 292.879 247.728L298.172 250.862C298.714 251.183 298.865 251.898 298.5 252.411C298.194 252.841 297.622 252.984 297.149 252.752L292.579 250.502C292.566 250.518 292.553 250.534 292.539 250.549L295.313 252.28C295.848 252.613 295.982 253.333 295.606 253.836C295.29 254.258 294.714 254.389 294.247 254.146L290.353 252.114L292.099 253.598C292.579 254.007 292.607 254.737 292.161 255.18C291.787 255.552 291.199 255.598 290.772 255.288L287.81 253.141L289.082 254.378C289.533 254.817 289.513 255.547 289.039 255.961C288.642 256.309 288.052 256.317 287.645 255.98L282.42 251.659C282.415 251.655 282.411 251.651 282.406 251.647C281.894 251.436 281.45 251.056 281.166 250.54L277.755 245.098L247.032 232.626C244.089 231.719 241.805 229.153 241.411 225.897L236.997 189.38Z" fill="#D4E8F5"/>
<path d="M256.93 215.385L234.127 219.348L236.415 189.734C236.776 184.888 239.537 180.96 243.986 180.424L244.502 180.362C248.952 179.826 252.994 182.982 253.532 187.41L256.93 215.385Z" fill="#3368D8"/>
<path d="M271.173 169.054C270.755 169.07 270.403 168.744 270.387 168.326C270.371 167.908 270.697 167.556 271.115 167.54C271.533 167.524 271.885 167.85 271.901 168.268C271.917 168.686 271.591 169.038 271.173 169.054Z" fill="black"/>
<path d="M276.501 169.609C276.083 169.624 275.731 169.298 275.715 168.88C275.699 168.462 276.025 168.11 276.444 168.094C276.862 168.078 277.214 168.404 277.23 168.823C277.246 169.241 276.92 169.593 276.501 169.609Z" fill="black"/>
<path d="M275.502 173.153C276.373 172.73 275.038 170.333 274.261 169.188L273.094 172.321C272.937 172.741 273.176 173.2 273.616 173.262C274.217 173.346 275.012 173.39 275.502 173.153Z" fill="#3A6FDF"/>
<path fill-rule="evenodd" clip-rule="evenodd" d="M275.746 165.294C276.284 165.201 276.84 165.354 277.258 165.709L277.373 165.807C277.613 166.01 277.971 165.985 278.173 165.752C278.375 165.518 278.345 165.164 278.105 164.96L277.99 164.863C277.31 164.286 276.409 164.038 275.536 164.189L275.443 164.204C275.135 164.257 274.933 164.548 274.991 164.852C275.049 165.158 275.346 165.362 275.654 165.309L275.746 165.294ZM273.513 164.558C273.616 164.266 273.459 163.944 273.164 163.838L272.938 163.757C271.702 163.313 270.338 163.44 269.224 164.102L269.097 164.178C268.831 164.336 268.748 164.681 268.913 164.946C269.078 165.213 269.427 165.3 269.694 165.141L269.82 165.066C270.644 164.577 271.651 164.483 272.566 164.811L272.791 164.891C273.087 164.998 273.41 164.848 273.513 164.558Z" fill="black"/>
<path d="M273.267 174.281L270.238 174.397C270.636 176.404 273.023 176.312 273.267 174.281Z" fill="white"/>
<path d="M303.159 99.7685C303.159 95.4245 306.679 91.9033 311.023 91.9033H493.333C497.677 91.9033 501.198 95.4245 501.198 99.7685V244.907C501.198 249.25 497.677 252.772 493.333 252.772H311.023C306.679 252.772 303.159 249.25 303.159 244.907V99.7685Z" fill="#E2F0FA"/>
<path d="M284.729 98.4419C284.729 94.4862 287.941 91.2783 291.903 91.2783H350.013V252.459H290.468C287.298 252.459 284.729 249.893 284.729 246.728V98.4419Z" fill="#50D760"/>
<path d="M291.914 176.711C291.914 172.657 295.205 169.37 299.264 169.37H335.479C339.539 169.37 342.829 172.657 342.829 176.711C342.829 180.764 339.539 184.051 335.479 184.051H299.264C295.205 184.051 291.914 180.764 291.914 176.711Z" fill="white"/>
<path fill-rule="evenodd" clip-rule="evenodd" d="M309.094 157.188C309.094 155.98 310.055 155.001 311.239 155.001H334.124C335.309 155.001 336.27 155.98 336.27 157.188C336.27 158.395 335.309 159.374 334.124 159.374H311.239C310.055 159.374 309.094 158.395 309.094 157.188Z" fill="white" fill-opacity="0.3"/>
<path fill-rule="evenodd" clip-rule="evenodd" d="M309.094 196.233C309.094 195.025 310.055 194.047 311.239 194.047H334.124C335.309 194.047 336.27 195.025 336.27 196.233C336.27 197.441 335.309 198.42 334.124 198.42H311.239C310.055 198.42 309.094 197.441 309.094 196.233Z" fill="white" fill-opacity="0.3"/>
<path d="M317.371 126.889C323.495 126.889 328.46 121.924 328.46 115.8C328.46 109.676 323.495 104.711 317.371 104.711C311.247 104.711 306.282 109.676 306.282 115.8C306.282 121.924 311.247 126.889 317.371 126.889Z" fill="white"/>
<path fill-rule="evenodd" clip-rule="evenodd" d="M300.661 137.978C300.661 136.856 301.616 135.947 302.794 135.947H331.951C333.129 135.947 334.084 136.856 334.084 137.978C334.084 139.099 333.129 140.008 331.951 140.008H302.794C301.616 140.008 300.661 139.099 300.661 137.978Z" fill="white" fill-opacity="0.3"/>
<path fill-rule="evenodd" clip-rule="evenodd" d="M362.509 113.613C362.509 112.492 363.471 111.583 364.656 111.583H377.541C378.727 111.583 379.689 112.492 379.689 113.613C379.689 114.735 378.727 115.643 377.541 115.643H364.656C363.471 115.643 362.509 114.735 362.509 113.613Z" fill="#AFCCE4"/>
<path fill-rule="evenodd" clip-rule="evenodd" d="M362.509 104.71C362.509 103.503 363.469 102.523 364.653 102.523H400.035C401.219 102.523 402.179 103.503 402.179 104.71C402.179 105.918 401.219 106.897 400.035 106.897H364.653C363.469 106.897 362.509 105.918 362.509 104.71Z" fill="#46E058"/>
<path fill-rule="evenodd" clip-rule="evenodd" d="M302.223 228.719C302.223 227.511 303.19 226.532 304.384 226.532H330.674C331.867 226.532 332.835 227.511 332.835 228.719C332.835 229.927 331.867 230.905 330.674 230.905H304.384C303.19 230.905 302.223 229.927 302.223 228.719Z" fill="white" fill-opacity="0.3"/>
<path d="M299.411 199.044C300.963 199.044 302.222 197.786 302.222 196.233C302.222 194.681 300.963 193.422 299.411 193.422C297.858 193.422 296.6 194.681 296.6 196.233C296.6 197.786 297.858 199.044 299.411 199.044Z" fill="#7DE98A"/>
<path d="M299.411 160C300.963 160 302.222 158.741 302.222 157.188C302.222 155.636 300.963 154.377 299.411 154.377C297.858 154.377 296.6 155.636 296.6 157.188C296.6 158.741 297.858 160 299.411 160Z" fill="#7DE98A"/>
<path d="M299.411 179.366C300.963 179.366 302.222 178.107 302.222 176.554C302.222 175.002 300.963 173.743 299.411 173.743C297.858 173.743 296.6 175.002 296.6 176.554C296.6 178.107 297.858 179.366 299.411 179.366Z" fill="#7DE98A"/>
<path d="M360.947 131.182C360.947 128.811 362.873 126.889 365.248 126.889H390.694C393.07 126.889 394.995 128.811 394.995 131.182V166.638C394.995 169.01 393.07 170.932 390.694 170.932H365.248C362.873 170.932 360.947 169.01 360.947 166.638V131.182Z" fill="#D4E8F5"/>
<path d="M360.677 183.385C360.677 181.014 362.599 179.092 364.97 179.092H478.39C480.761 179.092 482.683 181.014 482.683 183.385V218.838C482.683 221.209 480.761 223.131 478.39 223.131H364.97C362.599 223.131 360.677 221.209 360.677 218.838V183.385Z" fill="#D7E8F4"/>
<path fill-rule="evenodd" clip-rule="evenodd" d="M420.25 193.761C410.159 193.761 401.942 201.917 401.823 212.051L394.668 211.967C394.833 197.944 406.21 186.605 420.25 186.605C434.289 186.605 445.667 197.944 445.832 211.967L438.676 212.051C438.557 201.917 430.34 193.761 420.25 193.761Z" fill="#46E058"/>
<path fill-rule="evenodd" clip-rule="evenodd" d="M407.249 194.094C405.851 192.697 403.586 192.697 402.188 194.094C397.611 198.672 394.749 204.987 394.667 211.967L401.823 212.051C401.882 207.01 403.942 202.461 407.249 199.154C408.646 197.757 408.646 195.491 407.249 194.094Z" fill="#3368D8"/>
<path fill-rule="evenodd" clip-rule="evenodd" d="M309.094 176.554C309.094 175.347 310.055 174.368 311.239 174.368H334.124C335.309 174.368 336.27 175.347 336.27 176.554C336.27 177.762 335.309 178.741 334.124 178.741H311.239C310.055 178.741 309.094 177.762 309.094 176.554Z" fill="#7DE98A"/>
<path d="M384.998 150.245C383.848 151.389 382.434 152.234 380.879 152.704C379.324 153.174 377.677 153.254 376.083 152.938C374.489 152.622 372.999 151.92 371.743 150.894C370.486 149.867 369.504 148.548 368.882 147.053C368.26 145.558 368.018 143.934 368.178 142.323C368.337 140.713 368.892 139.167 369.795 137.821C370.698 136.476 371.92 135.373 373.353 134.61C374.786 133.847 376.386 133.448 378.01 133.448V143.288L384.998 150.245Z" fill="#184099"/>
<path d="M381.875 134.698C383.11 134.698 384.318 135.063 385.345 135.747C386.373 136.431 387.173 137.402 387.646 138.539C388.119 139.676 388.243 140.926 388.002 142.133C387.761 143.34 387.166 144.449 386.292 145.319L381.875 140.92V134.698Z" fill="#3368D8"/>
<path fill-rule="evenodd" clip-rule="evenodd" d="M456.529 187.71C456.529 186.724 457.33 185.925 458.318 185.925H471.919C472.907 185.925 473.709 186.724 473.709 187.71C473.709 188.695 472.907 189.495 471.919 189.495H458.318C457.33 189.495 456.529 188.695 456.529 187.71Z" fill="#AFCCE4"/>
<path fill-rule="evenodd" clip-rule="evenodd" d="M471.919 198.42H466.908C465.92 198.42 465.119 197.621 465.119 196.635C465.119 195.649 465.92 194.85 466.908 194.85H471.919C472.907 194.85 473.709 195.649 473.709 196.635C473.709 197.621 472.907 198.42 471.919 198.42Z" fill="#AFCCE4"/>
<path fill-rule="evenodd" clip-rule="evenodd" d="M376.369 189.361H371.449C370.478 189.361 369.691 188.592 369.691 187.643C369.691 186.694 370.478 185.925 371.449 185.925H376.369C377.339 185.925 378.126 186.694 378.126 187.643C378.126 188.591 377.339 189.361 376.369 189.361Z" fill="#AFCCE4"/>
<path d="M405.614 131.182C405.614 128.811 407.542 126.889 409.921 126.889H478.462C480.84 126.889 482.768 128.811 482.768 131.182V166.638C482.768 169.01 480.84 170.932 478.462 170.932H409.921C407.542 170.932 405.614 169.01 405.614 166.638V131.182Z" fill="#D4E8F5"/>
<path d="M416.547 140.1C416.547 139.703 416.863 139.383 417.253 139.383H423.962C424.352 139.383 424.668 139.703 424.668 140.1V158.032C424.668 158.428 424.352 158.749 423.962 158.749H417.253C416.863 158.749 416.547 158.428 416.547 158.032V140.1Z" fill="#3368D8"/>
<path d="M428.417 146.969C428.417 146.575 428.733 146.255 429.124 146.255H435.833C436.223 146.255 436.539 146.575 436.539 146.969V158.035C436.539 158.43 436.223 158.75 435.833 158.75H429.124C428.733 158.75 428.417 158.43 428.417 158.035V146.969Z" fill="#46E058"/>
<path d="M439.975 143.228C439.975 142.829 440.303 142.506 440.708 142.506H447.676C448.08 142.506 448.409 142.829 448.409 143.228V158.027C448.409 158.426 448.08 158.749 447.676 158.749H440.708C440.303 158.749 439.975 158.426 439.975 158.027V143.228Z" fill="#3368D8"/>
<path d="M451.844 145.414C451.844 145.016 452.173 144.693 452.578 144.693H459.545C459.95 144.693 460.279 145.016 460.279 145.414V158.029C460.279 158.427 459.95 158.75 459.545 158.75H452.578C452.173 158.75 451.844 158.427 451.844 158.029V145.414Z" fill="#46E058"/>
<path d="M463.713 150.416C463.713 150.015 464.03 149.691 464.42 149.691H471.129C471.519 149.691 471.835 150.015 471.835 150.416V158.025C471.835 158.425 471.519 158.75 471.129 158.75H464.42C464.03 158.75 463.713 158.425 463.713 158.025V150.416Z" fill="#3368D8"/>
<path fill-rule="evenodd" clip-rule="evenodd" d="M410.053 210.577C410.053 209.589 410.854 208.788 411.842 208.788H426.869C427.857 208.788 428.658 209.589 428.658 210.577C428.658 211.565 427.857 212.366 426.869 212.366H411.842C410.854 212.366 410.053 211.565 410.053 210.577Z" fill="#AFCCE4"/>
<path fill-rule="evenodd" clip-rule="evenodd" d="M369.691 161.249C369.691 160.214 370.493 159.375 371.481 159.375H385.082C386.07 159.375 386.872 160.214 386.872 161.249C386.872 162.284 386.07 163.123 385.082 163.123H371.481C370.493 163.123 369.691 162.284 369.691 161.249Z" fill="#AFCCE4"/>
<path d="M503.53 241.526L513.691 244.65L510.458 254.333L503.642 251.107L498.565 253.188C497.436 253.651 496.142 253.221 495.502 252.169L493.761 249.31C492.977 248.022 493.473 246.329 494.823 245.684L503.53 241.526Z" fill="#D4E8F5"/>
<path d="M544.919 226.575C540.189 225.756 535.823 229.294 535.651 234.088L535.22 249.288L511.161 244.647L508.692 254.359L536.539 268.486C537.241 268.842 537.956 269.101 538.672 269.272C543.594 272.043 549.795 268.702 550.113 262.994L550.179 261.723C550.279 261.178 550.325 260.612 550.325 260.03C550.325 259.824 550.319 259.62 550.305 259.417L551.471 234.812C551.697 230.802 548.881 227.262 544.919 226.575Z" fill="#3368D8"/>
<path d="M507.994 254.174C507.542 253.92 507.335 253.378 507.501 252.886L510.458 244.133C510.646 243.576 511.243 243.273 511.802 243.451L516.379 244.915C516.853 245.067 517.161 245.525 517.124 246.023L516.301 257.082C516.243 257.868 515.391 258.328 514.705 257.943L507.994 254.174Z" fill="#98B3EE"/>
<path fill-rule="evenodd" clip-rule="evenodd" d="M188.776 217.881C189.241 218.109 189.433 218.67 189.206 219.134C179.307 239.397 177.639 262.749 177.275 281.683C177.265 282.2 176.837 282.612 176.32 282.602C175.803 282.592 175.391 282.164 175.401 281.646C175.766 262.68 177.43 238.97 187.522 218.312C187.749 217.847 188.311 217.654 188.776 217.881Z" fill="#261B65"/>
<path fill-rule="evenodd" clip-rule="evenodd" d="M154.689 234.165C154.873 233.681 155.414 233.438 155.898 233.622C163.308 236.441 168.568 241.257 172.011 248.545C175.433 255.788 177.039 265.431 177.274 277.899C177.284 278.416 176.872 278.844 176.355 278.854C175.837 278.864 175.41 278.452 175.4 277.935C175.167 265.57 173.572 256.237 170.317 249.345C167.082 242.498 162.191 238.022 155.232 235.374C154.748 235.19 154.505 234.648 154.689 234.165Z" fill="#261B65"/>
<path fill-rule="evenodd" clip-rule="evenodd" d="M192.576 252.836C192.627 253.352 192.25 253.809 191.735 253.86C190.432 253.987 188.861 254.834 187.188 256.384C185.535 257.916 183.876 260.049 182.397 262.559C179.433 267.588 177.275 273.984 177.275 279.791C177.275 280.308 176.856 280.727 176.338 280.727C175.82 280.727 175.401 280.308 175.401 279.791C175.401 273.57 177.694 266.847 180.782 261.608C182.329 258.982 184.096 256.694 185.913 255.01C187.711 253.344 189.654 252.18 191.553 251.995C192.068 251.944 192.526 252.321 192.576 252.836Z" fill="#261B65"/>
<path d="M159.04 291.297C158.443 287.294 161.544 283.695 165.592 283.695H188.017C192.065 283.695 195.166 287.294 194.569 291.297L191.258 313.501C190.775 316.747 187.987 319.149 184.706 319.149H168.903C165.621 319.149 162.834 316.747 162.351 313.501L159.04 291.297Z" fill="#E2F0FA"/>
<path d="M155.408 285.257C155.408 283.532 156.585 282.134 158.037 282.134H195.886C197.338 282.134 198.514 283.532 198.514 285.257V286.507C198.514 288.232 197.338 289.631 195.886 289.631H158.037C156.585 289.631 155.408 288.232 155.408 286.507V285.257Z" fill="#E2F0FA"/>
<path d="M192.893 301.812L195.08 289.63H171.34L192.893 301.812Z" fill="#D4E8F5"/>
<path d="M181.482 247.664L184.537 248.112C186.585 248.411 188.676 248.188 190.617 247.461L194.895 245.86C197.045 245.056 199.464 245.664 200.978 247.39C202.334 248.935 202.723 251.108 201.99 253.034L196.416 267.676C195.34 270.501 191.792 271.396 189.52 269.414L176.652 258.192C174.868 256.635 174.161 254.173 174.846 251.899C175.709 249.034 178.533 247.232 181.482 247.664Z" fill="#00C8BC"/>
<path d="M187.886 211.649L188.118 211.732C192.205 213.199 196.599 213.605 200.887 212.912L202.777 212.606C205.304 212.198 207.819 213.399 209.09 215.62C210.217 217.59 210.166 220.021 208.957 221.941L198.372 238.765C197.213 240.608 194.571 240.729 193.248 238.999L180.282 222.053C178.682 219.962 178.452 217.128 179.693 214.806C181.263 211.867 184.75 210.523 187.886 211.649Z" fill="#00C8BC"/>
<path d="M150.514 226.825L153.134 229.59C155.459 232.046 158.729 233.383 162.11 233.259L168.061 233.041C170.833 232.941 173.21 235.006 173.496 237.765C173.696 239.695 172.819 241.579 171.214 242.669L150.336 256.846C147.581 258.717 143.809 257.198 143.12 253.941L138.693 233.031C138.168 230.554 139.035 227.988 140.954 226.337C143.76 223.922 147.969 224.137 150.514 226.825Z" fill="#00C8BC"/>
<path fill-rule="evenodd" clip-rule="evenodd" d="M187.641 249.629C188.042 249.364 188.574 249.479 188.829 249.885C188.869 249.95 188.911 250.017 188.956 250.087C189.427 250.831 190.126 251.933 190.72 253.779C191.367 255.788 191.88 258.644 191.918 262.892C191.923 263.377 191.541 263.779 191.066 263.789C190.591 263.799 190.203 263.414 190.198 262.929C190.161 258.816 189.664 256.145 189.085 254.345C188.561 252.715 187.963 251.771 187.506 251.049C187.461 250.979 187.417 250.911 187.376 250.844C187.121 250.438 187.24 249.894 187.641 249.629Z" fill="#01ACA2"/>
<path fill-rule="evenodd" clip-rule="evenodd" d="M156.179 233.634C156.57 233.973 156.612 234.565 156.273 234.956C155.01 236.413 151.702 241.333 149.111 248.86C148.942 249.35 148.409 249.609 147.92 249.441C147.43 249.273 147.17 248.739 147.339 248.25C149.995 240.534 153.412 235.395 154.857 233.728C155.196 233.338 155.787 233.295 156.179 233.634Z" fill="#01ACA2"/>
<path fill-rule="evenodd" clip-rule="evenodd" d="M195.768 214.592C196.275 214.489 196.77 214.817 196.873 215.325C197.482 218.333 198.545 225.76 197.851 231.304C197.787 231.817 197.318 232.181 196.805 232.117C196.292 232.053 195.927 231.585 195.991 231.071C196.647 225.834 195.634 218.647 195.035 215.696C194.933 215.19 195.261 214.695 195.768 214.592Z" fill="#01ACA2"/>
<path fill-rule="evenodd" clip-rule="evenodd" d="M236.997 189.379C236.464 184.967 239.607 180.957 244.017 180.424L244.529 180.362C248.939 179.828 252.947 182.973 253.48 187.385L257.268 218.727L282.864 237.271L283.046 237.459C283.8 237.574 291.459 238.772 291.799 240.132C292.038 241.088 289.439 241.341 286.919 241.447L292.455 247.146C292.63 247.325 292.77 247.521 292.879 247.727L298.172 250.862C298.714 251.182 298.866 251.898 298.5 252.411C298.194 252.84 297.622 252.984 297.149 252.752L292.579 250.501C292.566 250.517 292.553 250.533 292.539 250.549L295.314 252.28C295.848 252.613 295.983 253.332 295.606 253.836C295.29 254.258 294.714 254.389 294.247 254.146L290.353 252.114L292.1 253.598C292.579 254.006 292.608 254.737 292.161 255.18C291.787 255.552 291.199 255.597 290.772 255.288L287.81 253.141L289.082 254.378C289.533 254.817 289.514 255.547 289.04 255.961C288.643 256.308 288.052 256.316 287.645 255.979L282.42 251.658C282.416 251.654 282.411 251.651 282.407 251.647C281.894 251.436 281.45 251.056 281.166 250.54L277.755 245.098L247.032 232.625C244.089 231.718 241.805 229.153 241.411 225.897L236.997 189.379Z" fill="#D4E8F5"/>
<path d="M256.929 215.385L234.126 219.348L236.414 189.733C236.775 184.887 239.536 180.959 243.985 180.423L244.501 180.361C248.95 179.826 252.993 182.982 253.531 187.41L256.929 215.385Z" fill="#3368D8"/>
</svg>
